<?xml version="1.0" standalone="no"?>
<!DOCTYPE svg PUBLIC "-//W3C//DTD SVG 1.1//EN" "http://www.w3.org/Graphics/SVG/1.1/DTD/svg11.dtd">
<svg version="1.1" xmlns="http://www.w3.org/2000/svg" viewBox="0 0 388.2674813386798 311.5475534092542" width="388.2674813386798" height="311.5475534092542"><!-- svg-source:excalidraw --><metadata></metadata><defs><style class="style-fonts">
      </style></defs><rect x="0" y="0" width="388.2674813386798" height="311.5475534092542" fill="#ffffff"></rect><g stroke-linecap="round"><g transform="translate(47.32191865599714 11.08520781993866) rotate(0 -1.20001220703125 144.40000915527344)"><path d="M0.42 -1.09 C0.83 32.07, 2.26 149.92, 1.53 198.27 C0.8 246.62, -3.18 274.08, -3.96 289.03 M-0.82 0.96 C-0.42 33.82, 1.08 148.25, 0.97 196.5 C0.86 244.75, -0.82 275.12, -1.46 290.46" stroke="#1e1e1e" stroke-width="2" fill="none"></path></g></g><mask></mask><g stroke-linecap="round"><g transform="translate(44.92195527709089 293.48520171642303) rotate(0 164.79998779296875 0.4000091552734375)"><path d="M0.29 -0.98 C55.05 -0.87, 274.12 1.27, 329.05 1.51 M-1.02 1.12 C53.49 0.81, 272.76 -0.32, 327.82 -0.25" stroke="#1e1e1e" stroke-width="2" fill="none"></path></g><g transform="translate(44.92195527709089 293.48520171642303) rotate(0 164.79998779296875 0.4000091552734375)"><path d="M304.35 8.36 C310.68 4.46, 321.5 2.96, 327.82 -0.25 M304.35 8.36 C310.69 6.88, 316.26 2.89, 327.82 -0.25" stroke="#1e1e1e" stroke-width="2" fill="none"></path></g><g transform="translate(44.92195527709089 293.48520171642303) rotate(0 164.79998779296875 0.4000091552734375)"><path d="M304.31 -8.74 C310.77 -6.8, 321.61 -2.45, 327.82 -0.25 M304.31 -8.74 C310.73 -5.59, 316.31 -4.95, 327.82 -0.25" stroke="#1e1e1e" stroke-width="2" fill="none"></path></g></g><mask></mask><g stroke-linecap="round"><g transform="translate(10.521930863028388 52.685213923454285) rotate(0 183.20001220703125 -3.5999984741210938)"><path d="M0.61 -0.85 C61.46 -1.91, 304.56 -5.16, 365.5 -6.12 M-0.52 1.32 C60.65 -0.07, 306.76 -6.02, 367.75 -7.67" stroke="#1e1e1e" stroke-width="2" fill="none"></path></g></g><mask></mask></svg>